HIERARCHY
ROOT Hips
{
     OFFSET 13.53930 95.05370 -40.14600
     CHANNELS 6 Xposition Yposition Zposition Zrotation Xrotation Yrotation
     JOINT Spine
     {
          OFFSET 0.00000 11.89050 0.00000
          CHANNELS 3 Zrotation Xrotation Yrotation
          JOINT Spine1
          {
               OFFSET 0.00000 25.65740 0.12766
               CHANNELS 3 Zrotation Xrotation Yrotation
               JOINT HEad
               {
                    OFFSET 0.00000 8.73416 0.01134
                    CHANNELS 3 Zrotation Xrotation Yrotation
                    End Site
                    {
                         OFFSET -0.29000 12.77420 2.51395
                    }
               }
               JOINT LeftShoulder1
               {
                    OFFSET 8.99000 -0.36225 -0.22000
                    CHANNELS 3 Zrotation Xrotation Yrotation
                    JOINT LeftArm
                    {
                         OFFSET 10.28270 -0.00338 0.32212
                         CHANNELS 3 Zrotation Xrotation Yrotation
                         JOINT LeftForeArm
                         {
                              OFFSET 32.76690 0.09914 -1.42434
                              CHANNELS 3 Zrotation Xrotation Yrotation
                              JOINT LeftHand
                              {
                                   OFFSET 27.56430 0.08536 1.02216
                                   CHANNELS 3 Zrotation Xrotation Yrotation
                                   End Site
                                   {
                                        OFFSET 16.74430 -0.60000 1.50291
                                   }
                              }
                         }
                    }
               }
               JOINT RightShoulder
               {
                    OFFSET -8.99000 -0.36225 -0.22000
                    CHANNELS 3 Zrotation Xrotation Yrotation
                    JOINT RightArm
                    {
                         OFFSET -10.28270 -0.00338 0.32212
                         CHANNELS 3 Zrotation Xrotation Yrotation
                         JOINT RightForeArm
                         {
                              OFFSET -32.89710 0.09914 -1.42434
                              CHANNELS 3 Zrotation Xrotation Yrotation
                              JOINT RightHand
                              {
                                   OFFSET -27.49210 0.08536 1.02216
                                   CHANNELS 3 Zrotation Xrotation Yrotation
                                   End Site
                                   {
                                        OFFSET -16.63120 -0.60000 1.50291
                                   }
                              }
                         }
                    }
               }
          }
     }
     JOINT LeftUpLeg
     {
          OFFSET 8.94580 -8.66707 0.10165
          CHANNELS 3 Zrotation Xrotation Yrotation
          JOINT LeftLeg
          {
               OFFSET -0.00000 -44.42270 1.37270
               CHANNELS 3 Zrotation Xrotation Yrotation
               JOINT LeftFoot
               {
                    OFFSET -0.25355 -42.09240 -1.46059
                    CHANNELS 3 Zrotation Xrotation Yrotation
                    JOINT LeftToes
                    {
                         OFFSET -0.04000 -4.41509 8.49910
                         CHANNELS 3 Zrotation Xrotation Yrotation
                         End Site
                         {
                              OFFSET 0.08000 -0.04745 9.77979
                         }
                    }
               }
          }
     }
     JOINT RightUpLeg
     {
          OFFSET -8.94580 -8.66707 0.10165
          CHANNELS 3 Zrotation Xrotation Yrotation
          JOINT RightLeg
          {
               OFFSET 0.00000 -44.42270 1.37270
               CHANNELS 3 Zrotation Xrotation Yrotation
               JOINT RightFoot
               {
                    OFFSET 0.25355 -42.09240 -1.46059
                    CHANNELS 3 Zrotation Xrotation Yrotation
                    JOINT RightToes
                    {
                         OFFSET 0.04000 -4.41509 8.49910
                         CHANNELS 3 Zrotation Xrotation Yrotation
                         End Site
                         {
                              OFFSET -0.08000 -0.13745 9.77979
                         }
                    }
               }
          }
     }
}
MOTION
Frames: 10
Frame Time: 0.01667
13.53930 95.05370 -40.14600 -8.19959 -16.04400 -36.67320 1.54364 12.56000 -1.11664 0.28126 25.20260 -1.47062 -10.61630 8.76174 9.30155 -0.00000 0.00000 -0.00000 -136.30099 -54.46960 -105.86100 -75.32390 56.19230 -57.96910 9.97703 8.35612 -14.78700 13.07230 1.05324 3.95448 93.04850 -6.20870 80.20020 32.04330 33.40430 85.23220 20.46050 12.36310 9.03396 24.03070 -2.97581 -19.25150 -22.36680 7.57672 60.56930 -7.77221 12.29830 1.25983 8.67331 -4.82247 -48.73740 -22.27660 5.03328 10.33850 38.60470 13.28420 -32.90140 -33.30830 -0.18184 2.12208 5.22428 -34.51820 12.88160 
13.77040 94.91220 -39.37090 -8.56969 -15.70460 -37.74650 2.32724 12.50520 -1.21419 0.32064 25.18840 -1.40580 -10.87610 8.84652 9.65281 -0.00000 0.00000 -0.00000 -135.89500 -54.80020 -105.66200 -75.10630 56.27360 -58.80620 10.07100 8.34246 -14.76190 12.75750 1.01182 3.79324 93.35360 -5.65778 80.23870 33.22710 33.65520 84.84420 20.28800 12.34770 9.06096 24.18310 -3.35517 -19.24720 -21.69240 8.62758 60.03890 -8.48207 11.75790 1.34691 8.94532 -2.52725 -47.64550 -22.19880 4.58283 10.40780 38.46270 14.22380 -32.54860 -33.04620 -0.24715 2.08361 5.43105 -35.19120 13.17560 
14.02340 94.73070 -38.55240 -8.91942 -15.36580 -38.83140 3.11481 12.45170 -1.32651 0.35873 25.17140 -1.36329 -11.08160 8.81774 10.11510 -0.00000 0.00000 -0.00000 -135.77000 -55.10560 -105.60200 -74.91700 56.32030 -59.55360 10.14670 8.32909 -14.77030 12.38820 0.96722 3.62237 93.80610 -5.05185 80.26510 34.15980 33.90480 84.54800 20.01030 12.32950 9.14244 24.29290 -3.73755 -19.50730 -21.22360 9.79191 60.01770 -9.31814 11.27800 1.45278 9.20311 -0.13268 -46.62790 -22.17930 4.07749 10.47200 38.37540 15.24970 -32.25660 -32.93600 -0.32996 2.05086 5.67084 -36.04810 13.39430 
14.29600 94.50890 -37.70550 -9.28768 -15.00480 -39.90170 3.89725 12.40390 -1.46511 0.41095 25.16280 -1.36866 -11.26480 8.68203 10.71410 -0.00000 0.00000 -0.00000 -135.66600 -55.38720 -105.50300 -74.71200 56.25950 -60.29510 10.19570 8.31672 -14.81970 12.03950 0.92888 3.47924 94.30510 -4.36878 80.24490 34.82650 34.10990 84.36550 19.70970 12.30770 9.22091 24.41090 -4.08842 -20.03910 -20.98320 10.98200 60.34600 -10.28360 10.92400 1.58318 9.39991 2.41949 -45.41680 -22.16740 3.56447 10.49960 38.34670 16.29880 -32.01050 -33.04580 -0.44473 2.02382 5.91733 -37.00750 13.50270 
14.58500 94.25430 -36.83780 -9.67561 -14.60870 -40.94090 4.63296 12.36490 -1.62924 0.48684 25.16170 -1.43423 -11.45640 8.47605 11.40840 -0.00000 0.00000 -0.00000 -135.57001 -55.64950 -105.38000 -74.50730 56.12890 -61.00680 10.27140 8.29391 -14.93840 11.75630 0.90939 3.43742 94.77040 -3.65666 80.16770 35.36270 34.23330 84.23760 19.48340 12.28210 9.22958 24.54060 -4.35910 -20.76540 -20.94710 12.10050 60.85470 -11.31670 10.69990 1.73065 9.47818 5.09189 -43.86830 -22.15680 3.05780 10.48240 38.38580 17.33550 -31.80580 -33.33400 -0.62772 1.98783 6.14180 -37.91580 13.54720 
14.88980 93.97290 -35.94810 -10.07170 -14.16270 -41.92470 5.31548 12.32920 -1.81213 0.59797 25.15460 -1.55141 -11.65520 8.23860 12.06830 -0.00000 0.00000 -0.00000 -135.64999 -55.88260 -105.36100 -74.37490 56.02510 -61.56830 10.40310 8.25433 -15.13930 11.54430 0.91422 3.53860 95.18280 -3.02132 80.05510 35.88310 34.28700 84.09810 19.36270 12.25470 9.15574 24.66720 -4.53064 -21.57690 -21.06410 13.09730 61.46340 -12.33150 10.51680 1.87555 9.40982 7.60791 -42.11970 -22.14490 2.54901 10.40160 38.48660 18.36800 -31.62590 -33.69540 -0.91208 1.92435 6.32358 -38.65090 13.57550 
15.21280 93.66630 -35.03290 -10.47570 -13.67120 -42.82470 5.97399 12.29260 -2.00121 0.76074 25.13590 -1.68835 -11.83370 8.00486 12.53830 -0.00000 0.00000 -0.00000 -136.03000 -56.04880 -105.51900 -74.36220 56.02510 -61.88180 10.56820 8.20402 -15.39110 11.38130 0.93130 3.71089 95.57220 -2.52641 79.92870 36.37450 34.32680 83.92800 19.28370 12.22790 9.05651 24.77590 -4.58569 -22.33950 -21.27660 13.96320 62.19350 -13.23180 10.19700 1.98452 9.24649 9.40822 -40.61990 -22.12930 2.04243 10.25300 38.63130 19.41830 -31.43950 -33.99420 -1.28469 1.82752 6.45751 -39.19510 13.58920 
15.55690 93.33380 -34.09720 -10.90470 -13.15750 -43.62760 6.64052 12.25760 -2.18641 0.98860 25.11430 -1.81452 -11.99700 7.83415 12.74790 -0.00000 0.00000 -0.00000 -136.59900 -56.10620 -105.75000 -74.38300 56.13690 -62.03140 10.75240 8.15307 -15.60400 11.24310 0.94489 3.85347 95.95010 -2.17402 79.79210 36.71540 34.38640 83.76560 19.15240 12.20720 9.02654 24.87290 -4.49743 -22.90420 -21.53960 14.70650 63.10300 -13.93350 9.54055 2.01927 9.09847 9.91951 -39.86200 -22.10920 1.55476 10.08030 38.81470 20.48820 -31.23910 -34.09990 -1.69432 1.70578 6.55579 -39.59840 13.59300 
15.91280 92.99080 -33.17190 -11.35840 -12.66090 -44.33010 7.27176 12.23360 -2.35864 1.27438 25.10550 -1.92570 -12.19450 7.77872 12.73290 -0.00000 0.00000 -0.00000 -137.10400 -56.04250 -105.86000 -74.28100 56.30280 -62.22290 10.93870 8.11412 -15.67320 11.14600 0.95330 3.94713 96.25110 -1.94161 79.64950 36.80680 34.42790 83.66430 18.94620 12.19980 9.12472 24.98500 -4.21917 -23.08890 -21.79980 15.26490 64.10550 -14.34170 8.48646 1.95613 9.03160 9.01966 -40.01880 -22.09010 1.11204 9.95402 39.02560 21.52400 -31.05350 -33.97020 -2.07956 1.57818 6.64126 -39.92340 13.62090 
16.25340 92.68880 -32.32120 -11.77890 -12.25550 -44.90790 7.69700 12.23670 -2.49770 1.57116 25.12690 -2.04256 -12.43520 7.80099 12.59110 -0.00000 0.00000 -0.00000 -137.43300 -55.87670 -105.79100 -74.03070 56.44640 -62.51400 11.05370 8.10230 -15.58210 11.14060 0.96293 4.01690 96.39190 -1.77729 79.51070 36.68990 34.38940 83.63170 18.72770 12.20820 9.32670 25.12110 -3.67375 -22.69320 -21.96570 15.43520 64.88490 -14.29530 7.25526 1.80404 9.02706 7.09448 -40.92310 -22.10960 0.77259 9.93456 39.21500 22.38440 -30.92590 -33.71380 -2.36376 1.47645 6.73977 -40.25270 13.69610 
